<svg width="1652" height="993" xmlns="http://www.w3.org/2000/svg" xmlns:xlink="http://www.w3.org/1999/xlink" overflow="hidden"><defs><clipPath id="clip0"><rect x="1292" y="339" width="1652" height="993"/></clipPath><clipPath id="clip1"><rect x="1292" y="340" width="1650" height="990"/></clipPath><clipPath id="clip2"><rect x="1292" y="340" width="1650" height="990"/></clipPath><clipPath id="clip3"><rect x="1402" y="390" width="1493" height="732"/></clipPath><clipPath id="clip4"><rect x="1402" y="390" width="1493" height="732"/></clipPath><clipPath id="clip5"><rect x="1292" y="340" width="1650" height="990"/></clipPath><clipPath id="clip6"><rect x="1292" y="340" width="1650" height="990"/></clipPath><clipPath id="clip7"><rect x="1292" y="340" width="1650" height="990"/></clipPath><clipPath id="clip8"><rect x="1292" y="340" width="1650" height="990"/></clipPath><clipPath id="clip9"><rect x="1292" y="340" width="1650" height="990"/></clipPath><clipPath id="clip10"><rect x="1292" y="340" width="1650" height="990"/></clipPath><clipPath id="clip11"><rect x="1292" y="340" width="1650" height="990"/></clipPath><clipPath id="clip12"><rect x="1292" y="340" width="1650" height="990"/></clipPath><clipPath id="clip13"><rect x="1292" y="340" width="1650" height="990"/></clipPath><clipPath id="clip14"><rect x="1292" y="340" width="1650" height="990"/></clipPath><clipPath id="clip15"><rect x="1292" y="340" width="1650" height="990"/></clipPath><clipPath id="clip16"><rect x="1292" y="340" width="1650" height="990"/></clipPath><clipPath id="clip17"><rect x="1292" y="340" width="1650" height="990"/></clipPath><clipPath id="clip18"><rect x="1292" y="340" width="1650" height="990"/></clipPath><clipPath id="clip19"><rect x="1292" y="340" width="1650" height="990"/></clipPath><clipPath id="clip20"><rect x="1292" y="340" width="1650" height="990"/></clipPath><clipPath id="clip21"><rect x="1292" y="340" width="1650" height="990"/></clipPath><clipPath id="clip22"><rect x="1292" y="340" width="1650" height="990"/></clipPath><clipPath id="clip23"><rect x="1292" y="340" width="1650" height="990"/></clipPath><clipPath id="clip24"><rect x="1292" y="340" width="1650" height="990"/></clipPath><clipPath id="clip25"><rect x="1292" y="340" width="1650" height="990"/></clipPath></defs><g clip-path="url(#clip0)" transform="translate(-1292 -339)"><rect x="1293" y="340" width="1649" height="990" fill="#FFFFFF"/><g clip-path="url(#clip1)"><path d="M1402.5 1038.53 2892.5 1038.53M1402.5 957.532 2892.5 957.532M1402.5 876.529 2892.5 876.529M1402.5 795.526 2892.5 795.526M1402.5 714.524 2892.5 714.524M1402.5 633.521 2892.5 633.521M1402.5 552.518 2892.5 552.518M1402.5 471.516 2892.5 471.516M1402.5 390.5 2892.5 390.5" stroke="#D9D9D9" stroke-width="3.4375" stroke-linejoin="round" stroke-miterlimit="10" fill="none"/></g><g clip-path="url(#clip2)"><path d="M1402.5 1119.5 2892.5 1119.5" stroke="#D9D9D9" stroke-width="3.4375" stroke-linejoin="round" stroke-miterlimit="10" fill="none" fill-rule="evenodd"/></g><g clip-path="url(#clip3)"><path d="M1509 917.03 1722.06 957.031 1934.06 876.029 2147.07 836 2360.08 998.033 2573.08 1079 2786 917.03" stroke="#4472C4" stroke-width="10.3125" stroke-linecap="round" stroke-linejoin="round" stroke-miterlimit="10" fill="none"/></g><g clip-path="url(#clip4)"><path d="M1509 472 1722.06 512.017 1934.06 553.018 2147.07 755 2360.08 674.022 2573.08 634.021 2786 553.018" stroke="#ED7D31" stroke-width="10.3125" stroke-linecap="round" stroke-linejoin="round" stroke-miterlimit="10" fill="none"/></g><g clip-path="url(#clip5)"><text fill="#595959" font-family="Calibri,Calibri_MSFontService,sans-serif" font-weight="400" font-size="41" transform="matrix(1 0 0 1 1343.19 1131)">0</text></g><g clip-path="url(#clip6)"><text fill="#595959" font-family="Calibri,Calibri_MSFontService,sans-serif" font-weight="400" font-size="41" transform="matrix(1 0 0 1 1343.19 1050)">2</text></g><g clip-path="url(#clip7)"><text fill="#595959" font-family="Calibri,Calibri_MSFontService,sans-serif" font-weight="400" font-size="41" transform="matrix(1 0 0 1 1343.19 969)">4</text></g><g clip-path="url(#clip8)"><text fill="#595959" font-family="Calibri,Calibri_MSFontService,sans-serif" font-weight="400" font-size="41" transform="matrix(1 0 0 1 1343.19 888)">6</text></g><g clip-path="url(#clip9)"><text fill="#595959" font-family="Calibri,Calibri_MSFontService,sans-serif" font-weight="400" font-size="41" transform="matrix(1 0 0 1 1343.19 807)">8</text></g><g clip-path="url(#clip10)"><text fill="#595959" font-family="Calibri,Calibri_MSFontService,sans-serif" font-weight="400" font-size="41" transform="matrix(1 0 0 1 1322.29 726)">10</text></g><g clip-path="url(#clip11)"><text fill="#595959" font-family="Calibri,Calibri_MSFontService,sans-serif" font-weight="400" font-size="41" transform="matrix(1 0 0 1 1322.29 645)">12</text></g><g clip-path="url(#clip12)"><text fill="#595959" font-family="Calibri,Calibri_MSFontService,sans-serif" font-weight="400" font-size="41" transform="matrix(1 0 0 1 1322.29 564)">14</text></g><g clip-path="url(#clip13)"><text fill="#595959" font-family="Calibri,Calibri_MSFontService,sans-serif" font-weight="400" font-size="41" transform="matrix(1 0 0 1 1322.29 483)">16</text></g><g clip-path="url(#clip14)"><text fill="#595959" font-family="Calibri,Calibri_MSFontService,sans-serif" font-weight="400" font-size="41" transform="matrix(1 0 0 1 1322.29 402)">18</text></g><g clip-path="url(#clip15)"><text fill="#595959" font-family="Calibri,Calibri_MSFontService,sans-serif" font-weight="400" font-size="41" transform="matrix(1 0 0 1 1487.87 1184)">23</text></g><g clip-path="url(#clip16)"><text fill="#595959" font-family="Calibri,Calibri_MSFontService,sans-serif" font-weight="400" font-size="41" transform="matrix(1 0 0 1 1700.69 1184)">24</text></g><g clip-path="url(#clip17)"><text fill="#595959" font-family="Calibri,Calibri_MSFontService,sans-serif" font-weight="400" font-size="41" transform="matrix(1 0 0 1 1913.5 1184)">25</text></g><g clip-path="url(#clip18)"><text fill="#595959" font-family="Calibri,Calibri_MSFontService,sans-serif" font-weight="400" font-size="41" transform="matrix(1 0 0 1 2126.32 1184)">26</text></g><g clip-path="url(#clip19)"><text fill="#595959" font-family="Calibri,Calibri_MSFontService,sans-serif" font-weight="400" font-size="41" transform="matrix(1 0 0 1 2339.14 1184)">27</text></g><g clip-path="url(#clip20)"><text fill="#595959" font-family="Calibri,Calibri_MSFontService,sans-serif" font-weight="400" font-size="41" transform="matrix(1 0 0 1 2551.96 1184)">28</text></g><g clip-path="url(#clip21)"><text fill="#595959" font-family="Calibri,Calibri_MSFontService,sans-serif" font-weight="400" font-size="41" transform="matrix(1 0 0 1 2764.77 1184)">29</text></g><g clip-path="url(#clip22)"><path d="M1927 1264 2015 1264" stroke="#4472C4" stroke-width="10.3125" stroke-linecap="round" stroke-linejoin="round" stroke-miterlimit="10" fill="none" fill-rule="evenodd"/></g><g clip-path="url(#clip23)"><text fill="#595959" font-family="Yu Gothic,Yu Gothic_MSFontService,sans-serif" font-weight="400" font-size="41" transform="matrix(1 0 0 1 2023.89 1276)">最低</text></g><g clip-path="url(#clip24)"><path d="M2145 1264 2233 1264" stroke="#ED7D31" stroke-width="10.3125" stroke-linecap="round" stroke-linejoin="round" stroke-miterlimit="10" fill="none" fill-rule="evenodd"/></g><g clip-path="url(#clip25)"><text fill="#595959" font-family="Yu Gothic,Yu Gothic_MSFontService,sans-serif" font-weight="400" font-size="41" transform="matrix(1 0 0 1 2242.05 1276)">最高</text></g><rect x="1293.5" y="340.5" width="1649" height="990" stroke="#D9D9D9" stroke-width="3.4375" stroke-linejoin="round" stroke-miterlimit="10" fill="none"/></g></svg>